# xmcd
#
# Track frame offsets: 
#        195
#        13037
#        31395
#        55225
#        71345
#        83862
#        105320
#        120567
#        131132
#        145867
#        161920
#        182035
#        202252
#        214405
#        226012
#        236922
#        249310
#        261175
#        271932
#        285060
#        296052
#        306862
#        320572
#        330650
#        343002
#
# Disc length: 4767 seconds
#
# Revision: 1
# Processed by: cddbd v1.5.1PL0 Copyright (c) Steve Scherf et al.
# Submitted via: ExactAudioCopy v0.90b4
#
DISCID=78129d19
DTITLE=Various Artist - Mardi Til You Drop '92
DYEAR=1992
DGENRE=Blues
TTITLE0=Professor Longhair/Go to the amardi Gras
TTITLE1=Dr. John/Iko Iko
TTITLE2=Beausoleil/Conja (New Orleans 1786)
TTITLE3=Rockin' Sidney/My Toot Toot
TTITLE4=Jo El Sonnier/Jambalaya
TTITLE5=Buckwheat Zydeco/Hot Tamale Baby
TTITLE6=Professor Longhair/Tipitina
TTITLE7=Aaron Neville/Over You
TTITLE8=Art Neville/All These Things
TTITLE9=Wild Tchoupitoulas/Brother John
TTITLE10=Aaron Neville/Tell It Like It Is
TTITLE11=Neville Brothers/Midnight Key
TTITLE12=Aaron Neville/Humdinger
TTITLE13=Art Neville/Lover Of Love
TTITLE14=Showmen/It will Stand
TTITLE15=Smiley Lewis/I Hear You Knockin'
TTITLE16=Ernie K-Doe/Mother-In-Law
TTITLE17=Jessie Hill/Ooh Poo Pah Doo, Part 1
TTITLE18=Irma Thomas/Time is On My Side
TTITLE19=Shirley and Lee/Let the Good Times Roll
TTITLE20=Clarence "Frog Man" Henry/Ain't Got No Home
TTITLE21=Meters/Cissy Strut
TTITLE22=Benny Spellman/Fortune Teller
TTITLE23=Frankie Ford/Sea Cruise
TTITLE24=Robert Parker/Barefootin'
EXTD=YEAR: 1992
EXTT0=
EXTT1=
EXTT2=
EXTT3=
EXTT4=
EXTT5=
EXTT6=
EXTT7=
EXTT8=
EXTT9=
EXTT10=
EXTT11=
EXTT12=
EXTT13=
EXTT14=
EXTT15=
EXTT16=
EXTT17=
EXTT18=
EXTT19=
EXTT20=
EXTT21=
EXTT22=
EXTT23=
EXTT24=
PLAYORDER=
